<?xml version="1.0" standalone="no"?>
<!DOCTYPE svg PUBLIC "-//W3C//DTD SVG 20010904//EN"
 "http://www.w3.org/TR/2001/REC-SVG-20010904/DTD/svg10.dtd">
<svg version="1.0" xmlns="http://www.w3.org/2000/svg"
 width="260.000000pt" height="260.000000pt" viewBox="0 0 260.000000 260.000000"
 preserveAspectRatio="xMidYMid meet">
<metadata>
Created by potrace 1.11, written by Peter Selinger 2001-2013
</metadata>
<g transform="translate(0.000000,260.000000) scale(0.100000,-0.100000)"
fill="#000000" stroke="none">
<path d="M433 2278 l-23 -24 0 -965 0 -966 24 -22 c27 -26 33 -26 326 -1 63 5
147 12 185 16 39 3 90 7 115 9 25 2 81 7 125 10 234 18 272 22 355 42 164 40
312 125 440 253 144 142 239 325 267 510 3 19 10 38 17 42 8 6 8 8 -1 8 -7 0
-13 5 -13 11 0 5 4 8 9 5 5 -3 9 35 10 85 1 71 -1 89 -11 83 -8 -5 -7 -1 2 11
9 11 10 16 3 11 -9 -5 -13 1 -13 21 0 43 -33 160 -68 241 -93 217 -283 406
-501 497 -114 48 -203 67 -368 80 -43 3 -98 8 -123 10 -25 2 -81 7 -125 10
-44 3 -100 7 -125 10 -25 3 -81 7 -125 10 -44 3 -93 8 -110 10 -16 2 -79 6
-140 10 -107 7 -111 6 -132 -17z m302 -183 c50 -3 106 -8 125 -10 19 -2 73 -6
120 -10 47 -3 101 -8 120 -10 19 -2 71 -6 115 -10 244 -18 322 -34 430 -88
192 -96 336 -264 394 -462 28 -96 31 -117 31 -220 1 -317 -213 -608 -527 -716
-32 -11 -59 -19 -61 -19 -1 1 -21 -1 -45 -5 -48 -6 -103 -11 -214 -20 -43 -3
-96 -8 -118 -10 -22 -2 -80 -6 -130 -10 -49 -4 -101 -9 -115 -10 -23 -3 -195
-16 -249 -19 l-25 -1 -1 805 c0 443 1 811 3 817 2 8 15 11 31 9 14 -3 67 -7
116 -11z"/>
<path d="M721 1970 c-11 -6 -15 -37 -15 -133 -1 -110 0 -124 14 -114 33 27
231 229 228 233 -3 2 -42 6 -89 9 -46 4 -93 8 -104 10 -11 2 -27 0 -34 -5z"/>
<path d="M990 1953 c0 -3 55 -61 123 -130 67 -68 122 -129 122 -134 0 -10
-254 -269 -265 -269 -3 0 -62 56 -130 124 -68 69 -127 123 -130 121 -3 -2 -5
-57 -4 -123 l0 -120 67 -65 66 -65 -67 -70 -68 -70 1 -116 c1 -64 3 -118 6
-120 2 -3 60 51 128 120 69 68 128 124 131 124 11 0 265 -258 265 -269 0 -5
-55 -66 -122 -135 -68 -68 -123 -127 -123 -130 0 -3 15 -4 33 -1 17 3 64 7
102 10 39 3 85 7 104 8 26 3 46 17 89 61 45 47 58 55 67 45 6 -8 27 -29 46
-47 l35 -32 55 19 c31 10 71 26 89 36 l33 17 -72 72 -71 72 137 137 137 137
58 -57 c32 -31 59 -55 61 -52 14 15 26 53 37 116 12 68 12 72 -9 99 l-21 27
21 23 c18 19 20 30 15 71 -8 56 -35 143 -44 143 -4 0 -31 -25 -62 -55 l-55
-55 -138 137 -138 137 72 72 c82 82 84 74 -38 120 l-66 25 -30 -28 c-17 -15
-38 -36 -47 -47 -15 -17 -18 -15 -72 40 -39 40 -65 58 -85 60 -15 1 -62 5
-103 9 -132 12 -140 13 -140 8z m520 -528 l135 -135 -136 -136 -136 -136 -137
136 -136 136 132 134 c73 74 135 135 138 135 3 1 66 -60 140 -134z"/>
<path d="M706 747 c0 -68 4 -128 7 -134 4 -6 19 -9 34 -7 16 1 66 5 113 9 46
3 86 8 88 10 4 3 -235 245 -241 245 -2 0 -2 -55 -1 -123z"/>
</g>
</svg>
